<svg version="1" xmlns="http://www.w3.org/2000/svg" width="800" height="800" viewBox="0 0 600.000000 600.000000"><path d="M449.5 107c-14.9 3.1-28.8 12.9-37.7 26.4-14 21.5-10.5 51.8 8.1 70.4 22.3 22.4 57.2 23.1 79.9 1.8 12.9-12.3 18.2-24.2 18.2-41.3 0-17.8-4.6-29-17-41.3-4.1-4.1-9.8-8.7-12.7-10.3-10.5-5.6-27.1-8.1-38.8-5.7zm30.5 13.6c19 8.9 30.3 29.6 27.2 49.7-5.1 33.4-43 51-71.2 33.2-20.4-12.9-27.9-40.2-16.9-61.7 2.8-5.5 12.2-15.3 17.9-18.6 8.7-5.1 13.5-6.3 25.5-6 9.9.3 11.7.6 17.5 3.4z"/><path d="M447.3 130.7l-8.3.4V193h14v-24h3.4c7.7 0 10.4 3 15.1 17l2.2 6.5 7.6.3c4.8.2 7.7-.1 7.7-.7 0-4.6-10.1-25.3-13.7-28.1l-2.4-1.9 3.1-1.6c6.7-3.4 9.6-13.1 6.2-20.7-3.5-7.9-12.2-10.2-34.9-9.1zm17.6 11.4c3.5 1.2 5.1 3.5 5.1 7.3 0 5.6-3.1 8-11.8 9.2l-5.2.7v-8.5c0-4.7.3-8.8.7-9.1 1-1.1 7.7-.8 11.2.4zM138.1 140.7l-41.4.3.6 16.8c3 76.4 3.2 192.7.6 277.5-.6 20.2-.9 37.1-.5 37.5 1.4 1.3 35.3 2.4 82.1 2.5 52.8.2 55.4 0 78.3-6.4 42.4-11.9 77.5-42.4 99.5-86.4 14.3-28.6 20.6-58.9 19.4-92.9-1.4-38.9-12.3-68.6-36.3-98.2-21.8-27-52-42.2-96.9-48.9-12.5-1.9-40.1-2.3-105.4-1.8zm78.7 52.9c36.1 5.3 61.1 23.2 77 54.9 8.9 17.9 12.6 35.1 12.6 59 0 24.5-4.1 43.4-13.4 61.8-16.2 32-39.4 48.2-75.4 52.7-10.9 1.4-34.1.9-44.2-1l-6.1-1.2-.7-17.6c-.3-9.7-1.1-53.3-1.6-96.7-.6-43.5-1.4-86.2-1.9-95-.4-8.8-.7-16.1-.5-16.3.6-.9 15.5-2 28.8-2.1 9 0 19 .5 25.4 1.5zM457 229.7c-18.4 1.9-33.6 3.6-33.8 3.8-.2.2.5 7 1.7 15.2 4.8 34.9 6.1 59.2 6.1 113.8 0 40.3-.9 73.7-2.6 100.2l-.6 10.3h69.4l-.6-10.3c-3.5-54.2-3.5-189.2-.1-229.5l.7-7.2-3.4.1c-1.8.1-18.4 1.7-36.8 3.6z"/></svg>