<?xml version="1.0" standalone="no"?>
<!DOCTYPE svg PUBLIC "-//W3C//DTD SVG 20010904//EN"
 "http://www.w3.org/TR/2001/REC-SVG-20010904/DTD/svg10.dtd">
<svg version="1.0" xmlns="http://www.w3.org/2000/svg"
 width="338.000000pt" height="338.000000pt" viewBox="0 0 338.000000 338.000000"
 preserveAspectRatio="xMidYMid meet">
<metadata>
Created by potrace 1.14, written by Peter Selinger 2001-2017
</metadata>
<g transform="translate(0.000000,338.000000) scale(0.100000,-0.100000)"
fill="#000000" stroke="none">
<path d="M1965 3329 c-353 -22 -670 -189 -905 -476 -26 -31 -108 -157 -120
-184 l-12 -26 -73 37 c-236 123 -500 79 -691 -114 -77 -78 -136 -183 -153
-271 -6 -28 -10 -294 -11 -592 l0 -543 230 0 230 0 0 530 c0 570 1 578 51 614
13 9 40 16 60 16 30 0 43 -7 68 -35 17 -20 32 -43 32 -53 5 -75 -32 -118 -111
-126 l-25 -3 -1 -194 c0 -107 1 -199 3 -205 5 -15 246 -6 274 11 10 7 34 -39
44 -85 25 -116 127 -315 223 -434 252 -314 608 -480 1007 -471 166 3 236 15
372 60 205 69 359 166 511 324 174 180 307 451 338 686 21 163 0 446 -46 609
-62 219 -168 402 -324 559 -257 258 -603 389 -971 366z"/>
<path d="M758 988 c-18 -18 -52 -55 -75 -83 -23 -27 -53 -63 -67 -80 -34 -39
-42 -72 -25 -100 12 -18 86 -86 210 -190 76 -64 102 -69 145 -27 39 38 94 104
94 112 0 4 -15 19 -32 33 -18 13 -46 37 -63 52 -83 76 -73 70 -95 50 -11 -10
-20 -23 -20 -29 1 -6 23 -29 50 -51 28 -22 50 -43 50 -46 0 -4 -12 -18 -27
-33 l-26 -27 -31 28 c-17 15 -33 30 -36 33 -3 3 -35 31 -72 63 -59 51 -66 60
-53 73 8 8 31 35 51 60 21 25 51 60 68 79 l32 34 94 -80 c52 -45 99 -85 104
-90 6 -5 3 -16 -8 -28 -16 -18 -15 -19 20 -40 20 -12 43 -20 51 -17 17 7 35
54 28 76 -12 39 -276 260 -310 260 -13 0 -38 -14 -57 -32z"/>
<path d="M3223 992 c-19 -3 -79 -55 -240 -207 l-53 -50 47 -50 c25 -27 83 -90
129 -140 l84 -89 35 34 c19 19 32 36 27 40 -4 3 -27 27 -51 52 l-44 47 101 98
c59 57 104 109 108 124 4 20 -3 36 -33 71 -44 53 -79 76 -110 70z m22 -117
c14 -13 25 -28 25 -34 0 -16 -153 -159 -164 -154 -6 2 -22 18 -35 35 l-24 30
79 74 c43 41 83 74 87 74 4 0 19 -11 32 -25z"/>
<path d="M1271 555 c-16 -33 -55 -112 -85 -175 l-56 -114 37 -18 c20 -10 38
-18 40 -18 1 0 17 29 35 65 l33 64 40 -22 c36 -20 43 -32 76 -117 36 -94 37
-95 90 -122 30 -14 55 -25 57 -23 2 2 -18 44 -43 95 -44 88 -51 115 -23 93 24
-19 73 -30 95 -22 13 5 35 33 53 68 35 69 41 99 28 124 -5 10 -85 55 -178 100
l-169 82 -30 -60z m187 -89 c49 -25 93 -50 97 -55 10 -17 -17 -80 -36 -86 -21
-7 -209 84 -209 101 0 23 33 84 45 84 7 0 53 -20 103 -44z"/>
<path d="M2750 602 c-24 -8 -86 -36 -218 -100 l-122 -59 85 -172 c79 -159 87
-172 108 -165 55 17 57 24 26 88 -16 33 -29 65 -29 71 0 6 57 40 128 76 156
79 159 84 111 183 -33 67 -58 88 -89 78z m4 -104 c32 -51 27 -57 -84 -113
l-105 -53 -23 45 c-13 25 -22 46 -20 47 134 66 195 95 205 96 7 0 19 -10 27
-22z"/>
<path d="M1822 230 c2 -147 6 -183 18 -190 8 -5 99 -10 202 -10 182 0 187 1
202 22 13 18 16 55 16 190 l0 168 -45 0 -45 0 0 -160 0 -160 -130 0 -130 0 0
160 0 160 -46 0 -45 0 3 -180z"/>
</g>
</svg>
